<svg width="164" height="38" viewBox="0 0 164 38" fill="none" xmlns="http://www.w3.org/2000/svg">
<g clip-path="url(#clip0_2702_6)">
<path d="M28.1208 19.6052C30.0918 19.6132 31.685 21.0521 31.685 22.8244C31.685 24.5695 30.1002 26.0868 28.16 26.1325H25.0362L22.9356 24.2436C21.0261 22.5267 22.3882 19.6052 25.0982 19.6052H28.1208Z" fill="url(#paint0_linear_2702_6)"/>
<path d="M17.777 28.8405C17.786 30.6004 19.4106 32.0228 21.4115 32.0228C23.3818 32.0228 25.0948 30.6082 25.1464 28.8759V26.7235C25.1464 26.7235 24.8257 23.0436 25.6599 21.5846C26.3543 20.3698 28.1189 19.6052 28.1189 19.6052H20.8246C19.1415 19.6052 17.777 20.8235 17.777 22.3263L17.777 28.8405Z" fill="#59C3FF"/>
<path d="M3.68887 16.1028C1.71786 16.0948 0.124756 14.6559 0.124756 12.8836C0.124756 11.1385 1.70933 9.62124 3.64944 9.57556H6.77329L8.87394 11.4644C10.7834 13.1813 9.42137 16.1028 6.71138 16.1028L3.68887 16.1028Z" fill="url(#paint1_linear_2702_6)"/>
<path d="M14.0325 7.02654C14.0237 5.26675 12.4271 3.8443 10.4607 3.8443C8.52442 3.8443 6.84091 5.25913 6.79017 6.99137V9.62131C6.79017 9.62131 7.10537 12.6644 6.2856 14.1234C5.60304 15.3382 3.86914 16.1028 3.86914 16.1028H10.9849C12.6681 16.1028 14.0325 14.8845 14.0325 13.3817V7.02654Z" fill="#59C3FF"/>
<path d="M13.9873 28.8986C13.9785 30.6476 12.3881 32.0612 10.4292 32.0612C8.50043 32.0612 6.8234 30.6551 6.77289 28.9337V26.1656L8.7847 24.3693C10.7046 22.6552 13.9873 23.8692 13.9873 26.2934V28.8986Z" fill="url(#paint2_linear_2702_6)"/>
<path d="M3.68887 19.6052C1.71786 19.6133 0.124756 21.0638 0.124756 22.8503C0.124756 24.6095 1.70933 26.139 3.64944 26.1851H6.77329C6.77329 26.1851 10.1816 25.8987 11.8156 26.6435C13.1762 27.2636 14.0325 28.8388 14.0325 28.8388V22.3263C14.0325 20.8235 12.6681 19.6052 10.9849 19.6052H3.68887Z" fill="#257CFF"/>
<path d="M17.8551 6.96074C17.8639 5.2118 19.4543 3.79816 21.4132 3.79816C23.342 3.79816 25.019 5.20421 25.0695 6.92578V9.69373L23.0577 11.49C21.1378 13.2042 17.8551 11.9901 17.8551 9.56591V6.96074Z" fill="url(#paint3_linear_2702_6)"/>
<path d="M28.1535 16.2541C30.1246 16.2461 31.7177 14.7955 31.7177 13.009C31.7177 11.2499 30.133 9.72034 28.1932 9.67429H25.0692C25.0692 9.67429 21.6609 9.96062 20.0268 9.21585C18.6663 8.59575 17.8099 7.02045 17.8099 7.02045V13.533C17.8099 15.0359 19.1744 16.2541 20.8575 16.2541H28.1535Z" fill="#257CFF"/>
<path d="M157.128 23.5V18.775H152.952V15.725H157.128V11H159.824V15.725H164V18.775H159.824V23.5H157.128Z" fill="white"/>
<path d="M148.328 12.25H151.19L145.147 31H142.285L144.285 24.75L140.308 12.25H143.257L145.633 20.575L148.328 12.25Z" fill="white"/>
<path d="M136.155 6H138.851V24.75H136.155V23.1875C135.802 23.7458 135.356 24.2 134.818 24.55C134.281 24.9 133.658 25.075 132.951 25.075C132.149 25.075 131.397 24.9042 130.698 24.5625C129.998 24.2208 129.379 23.75 128.842 23.15C128.311 22.5417 127.895 21.8417 127.593 21.05C127.291 20.2583 127.14 19.4083 127.14 18.5C127.14 17.5917 127.291 16.7417 127.593 15.95C127.895 15.1583 128.311 14.4625 128.842 13.8625C129.379 13.2542 129.998 12.7792 130.698 12.4375C131.397 12.0958 132.149 11.925 132.951 11.925C133.658 11.925 134.281 12.1 134.818 12.45C135.356 12.7917 135.802 13.2458 136.155 13.8125V6ZM132.984 22.1375C133.559 22.1375 134.067 21.975 134.509 21.65C134.951 21.325 135.297 20.8875 135.548 20.3375C135.798 19.7792 135.923 19.1667 135.923 18.5C135.923 17.825 135.798 17.2125 135.548 16.6625C135.297 16.1042 134.947 15.6625 134.498 15.3375C134.056 15.0125 133.552 14.85 132.984 14.85C132.417 14.85 131.898 15.0167 131.427 15.35C130.963 15.675 130.591 16.1125 130.311 16.6625C130.038 17.2125 129.902 17.825 129.902 18.5C129.902 19.175 130.042 19.7875 130.322 20.3375C130.602 20.8875 130.974 21.325 131.438 21.65C131.909 21.975 132.425 22.1375 132.984 22.1375Z" fill="white"/>
<path d="M122.626 6H125.322V24.75H122.626V23.1875C122.272 23.7458 121.827 24.2 121.289 24.55C120.752 24.9 120.129 25.075 119.422 25.075C118.619 25.075 117.868 24.9042 117.168 24.5625C116.469 24.2208 115.85 23.75 115.312 23.15C114.782 22.5417 114.366 21.8417 114.064 21.05C113.762 20.2583 113.611 19.4083 113.611 18.5C113.611 17.5917 113.762 16.7417 114.064 15.95C114.366 15.1583 114.782 14.4625 115.312 13.8625C115.85 13.2542 116.469 12.7792 117.168 12.4375C117.868 12.0958 118.619 11.925 119.422 11.925C120.129 11.925 120.752 12.1 121.289 12.45C121.827 12.7917 122.272 13.2458 122.626 13.8125V6ZM119.455 22.1375C120.03 22.1375 120.538 21.975 120.98 21.65C121.422 21.325 121.768 20.8875 122.018 20.3375C122.269 19.7792 122.394 19.1667 122.394 18.5C122.394 17.825 122.269 17.2125 122.018 16.6625C121.768 16.1042 121.418 15.6625 120.969 15.3375C120.527 15.0125 120.022 14.85 119.455 14.85C118.888 14.85 118.369 15.0167 117.898 15.35C117.434 15.675 117.062 16.1125 116.782 16.6625C116.509 17.2125 116.373 17.825 116.373 18.5C116.373 19.175 116.513 19.7875 116.793 20.3375C117.073 20.8875 117.445 21.325 117.909 21.65C118.38 21.975 118.896 22.1375 119.455 22.1375Z" fill="white"/>
<path d="M102.115 20.125V12.25H104.811V19.325C104.811 19.8167 104.918 20.2667 105.131 20.675C105.345 21.075 105.628 21.3958 105.982 21.6375C106.343 21.8708 106.737 21.9875 107.164 21.9875C107.606 21.9875 108.004 21.8708 108.357 21.6375C108.711 21.3958 108.994 21.075 109.208 20.675C109.422 20.2667 109.528 19.8167 109.528 19.325V12.25H112.224L112.235 24.75H109.539L109.528 23.6125C109.145 24.0625 108.692 24.4208 108.169 24.6875C107.647 24.9458 107.087 25.075 106.49 25.075C105.687 25.075 104.955 24.8542 104.292 24.4125C103.629 23.9625 103.099 23.3667 102.701 22.625C102.31 21.875 102.115 21.0417 102.115 20.125Z" fill="white"/>
<path d="M90.0206 24.75V7.25H95.655C96.4725 7.25 97.209 7.44167 97.8645 7.825C98.5274 8.2 99.0503 8.74167 99.4333 9.45C99.8237 10.15 100.019 10.9792 100.019 11.9375C100.019 12.3625 99.9636 12.7917 99.8531 13.225C99.7427 13.6583 99.5733 14.05 99.3449 14.4C99.1166 14.7417 98.822 14.9958 98.4611 15.1625C98.9399 15.2958 99.3302 15.5375 99.6322 15.8875C99.9341 16.2375 100.17 16.65 100.339 17.125C100.509 17.5917 100.623 18.0708 100.682 18.5625C100.748 19.0458 100.781 19.4958 100.781 19.9125C100.781 20.8375 100.579 21.6625 100.174 22.3875C99.7684 23.1125 99.2234 23.6875 98.5384 24.1125C97.8609 24.5375 97.1096 24.75 96.2847 24.75H90.0206ZM92.7163 22.1375H96.0085C96.4504 22.1375 96.8481 22.0167 97.2017 21.775C97.5552 21.5333 97.8388 21.2 98.0524 20.775C98.2659 20.35 98.3727 19.8667 98.3727 19.325C98.3727 18.8583 98.2659 18.4167 98.0524 18C97.8388 17.5833 97.5552 17.2458 97.2017 16.9875C96.8481 16.7292 96.4504 16.6 96.0085 16.6H92.7163V22.1375ZM92.7163 14.025H95.3456C95.8907 14.025 96.3547 13.8333 96.7377 13.45C97.128 13.0667 97.3232 12.5583 97.3232 11.925C97.3232 11.25 97.128 10.7417 96.7377 10.4C96.3547 10.05 95.8907 9.875 95.3456 9.875H92.7163V14.025Z" fill="white"/>
<path d="M82.9492 25.075C81.9328 25.075 81.0048 24.7791 80.1652 24.1875C79.3329 23.5958 78.6664 22.8 78.1656 21.8C77.6721 20.8 77.4254 19.6958 77.4254 18.4875C77.4254 17.5791 77.569 16.7291 77.8562 15.9375C78.1435 15.1375 78.5375 14.4375 79.0383 13.8375C79.5465 13.2291 80.1357 12.7541 80.806 12.4125C81.4762 12.0708 82.1906 11.9 82.9492 11.9C83.811 11.9 84.599 12.1083 85.3134 12.525C86.0352 12.9333 86.6465 13.4958 87.1474 14.2125C87.6482 14.9291 88.0128 15.7458 88.2411 16.6625C88.4694 17.5791 88.521 18.5375 88.3958 19.5375H80.3199C80.423 20.0041 80.5924 20.425 80.8281 20.8C81.0637 21.1666 81.362 21.4625 81.7229 21.6875C82.0838 21.9041 82.4926 22.0166 82.9492 22.025C83.4206 22.0333 83.8478 21.9083 84.2308 21.65C84.6211 21.3833 84.9452 21.025 85.203 20.575L87.9539 21.3C87.5046 22.4083 86.8344 23.3166 85.9432 24.025C85.052 24.725 84.054 25.075 82.9492 25.075ZM80.2315 17.25H85.667C85.586 16.75 85.4129 16.3 85.1477 15.9C84.89 15.4916 84.5696 15.1666 84.1866 14.925C83.8036 14.6833 83.3911 14.5625 82.9492 14.5625C82.5073 14.5625 82.0986 14.6833 81.7229 14.925C81.3473 15.1583 81.0269 15.4791 80.7618 15.8875C80.504 16.2875 80.3272 16.7416 80.2315 17.25Z" fill="white"/>
<path d="M70.4176 24.75L70.4066 12.25H73.1022L73.1133 13.3625C73.4889 12.9125 73.9382 12.5583 74.4611 12.3C74.984 12.0333 75.5474 11.9 76.1514 11.9C76.5565 11.9 76.9616 11.9666 77.3666 12.1L76.3061 15.175C76.0262 15.05 75.7463 14.9875 75.4664 14.9875C75.0319 14.9875 74.6342 15.1083 74.2733 15.35C73.9197 15.5833 73.6362 15.9041 73.4226 16.3125C73.2164 16.7125 73.1133 17.1583 73.1133 17.65V24.75H70.4176Z" fill="white"/>
<path d="M65.5095 12.25H68.2051V24.75H65.5095L65.3879 23.2C65.086 23.7583 64.6846 24.2125 64.1837 24.5625C63.6903 24.9041 63.1047 25.075 62.4271 25.075C61.6096 25.075 60.8436 24.9 60.1292 24.55C59.4148 24.2 58.7851 23.7166 58.2401 23.1C57.7024 22.4833 57.2789 21.7708 56.9696 20.9625C56.6676 20.1541 56.5166 19.2875 56.5166 18.3625C56.5166 17.4708 56.6602 16.6333 56.9475 15.85C57.2421 15.0666 57.6508 14.3791 58.1738 13.7875C58.6967 13.1958 59.3006 12.7333 59.9856 12.4C60.6706 12.0666 61.4071 11.9 62.1951 11.9C62.9243 11.9 63.5761 12.0833 64.1506 12.45C64.7324 12.8166 65.2259 13.2833 65.631 13.85L65.5095 12.25ZM62.3609 22.1375C62.9353 22.1375 63.4435 21.975 63.8855 21.65C64.3274 21.325 64.6735 20.8875 64.9239 20.3375C65.1744 19.7791 65.2996 19.1666 65.2996 18.5C65.2996 17.825 65.1744 17.2125 64.9239 16.6625C64.6735 16.1041 64.3237 15.6625 63.8744 15.3375C63.4325 15.0125 62.928 14.85 62.3609 14.85C61.7937 14.85 61.2745 15.0166 60.8031 15.35C60.3391 15.675 59.9672 16.1125 59.6873 16.6625C59.4148 17.2125 59.2785 17.825 59.2785 18.5C59.2785 19.175 59.4185 19.7875 59.6984 20.3375C59.9782 20.8875 60.3502 21.325 60.8142 21.65C61.2855 21.975 61.8011 22.1375 62.3609 22.1375Z" fill="white"/>
<path d="M49.6009 25.075C48.555 25.075 47.5718 24.8417 46.6511 24.375C45.7305 23.9 44.9203 23.2458 44.2206 22.4125C43.5283 21.5792 42.9833 20.6167 42.5855 19.525C42.1952 18.425 42 17.25 42 16C42 14.7417 42.1952 13.5667 42.5855 12.475C42.9833 11.375 43.5283 10.4125 44.2206 9.58749C44.9203 8.75416 45.7305 8.10415 46.6511 7.63749C47.5718 7.16249 48.555 6.92499 49.6009 6.92499C50.8529 6.92499 52.0056 7.25415 53.0588 7.91249C54.112 8.56249 54.9848 9.43332 55.6771 10.525L53.2687 11.9875C52.8342 11.3792 52.2928 10.8917 51.6447 10.525C51.0039 10.1583 50.3226 9.97499 49.6009 9.97499C48.9233 9.97499 48.2862 10.1333 47.6896 10.45C47.093 10.7583 46.5701 11.1917 46.1208 11.75C45.6715 12.3 45.3217 12.9417 45.0713 13.675C44.8209 14.4 44.6957 15.175 44.6957 16C44.6957 16.8333 44.8209 17.6125 45.0713 18.3375C45.3291 19.0625 45.6826 19.7042 46.1319 20.2625C46.5811 20.8125 47.1004 21.2458 47.6896 21.5625C48.2862 21.8708 48.9233 22.025 49.6009 22.025C50.3374 22.025 51.0223 21.8417 51.6557 21.475C52.2965 21.1 52.8342 20.6083 53.2687 20L55.6771 21.475C54.9848 22.5583 54.112 23.4292 53.0588 24.0875C52.0056 24.7458 50.8529 25.075 49.6009 25.075Z" fill="white"/>
</g>
<defs>
<linearGradient id="paint0_linear_2702_6" x1="32.4495" y1="21.8405" x2="18.9726" y2="26.9988" gradientUnits="userSpaceOnUse">
<stop stop-color="#59C3FF"/>
<stop offset="1" stop-color="#DCF2FF"/>
</linearGradient>
<linearGradient id="paint1_linear_2702_6" x1="-0.639854" y1="13.8675" x2="12.8369" y2="8.70924" gradientUnits="userSpaceOnUse">
<stop stop-color="#59C3FF"/>
<stop offset="1" stop-color="#DCF2FF"/>
</linearGradient>
<linearGradient id="paint2_linear_2702_6" x1="11.5167" y1="32.7394" x2="7.66949" y2="20.2152" gradientUnits="userSpaceOnUse">
<stop stop-color="#257CFF"/>
<stop offset="1" stop-color="#CFE2FF"/>
</linearGradient>
<linearGradient id="paint3_linear_2702_6" x1="20.3257" y1="3.11993" x2="24.1729" y2="15.6442" gradientUnits="userSpaceOnUse">
<stop stop-color="#257CFF"/>
<stop offset="1" stop-color="#CFE2FF"/>
</linearGradient>
<clipPath id="clip0_2702_6">
<rect width="164" height="38" fill="white"/>
</clipPath>
</defs>
</svg>
